<?xml version="1.0" standalone="no"?>
<!DOCTYPE svg PUBLIC "-//W3C//DTD SVG 1.1//EN" "http://www.w3.org/Graphics/SVG/1.1/DTD/svg11.dtd" >
<!--
2013-9-30: Created.
-->
<svg>
<metadata>
Created by iconfont
</metadata>
<defs>

<font id="iconfont" horiz-adv-x="1024" >
  <font-face
    font-family="iconfont"
    font-weight="500"
    font-stretch="normal"
    units-per-em="1024"
    ascent="896"
    descent="-128"
  />
    <missing-glyph />
    
    <glyph glyph-name="check" unicode="&#58949;" d="M887.904 597.792c-12.864 12.064-33.152 11.488-45.216-1.408L415.936 142.016l-233.12 229.696C170.208 384.128 149.952 384 137.536 371.392c-12.416-12.576-12.256-32.864 0.352-45.248l256.48-252.672c0.096-0.096 0.224-0.128 0.32-0.224 0.096-0.096 0.128-0.224 0.224-0.32 2.016-1.92 4.448-3.008 6.784-4.288 1.152-0.672 2.144-1.664 3.36-2.144 3.776-1.472 7.776-2.24 11.744-2.24 4.192 0 8.384 0.832 12.288 2.496 1.312 0.544 2.336 1.664 3.552 2.368 2.4 1.408 4.896 2.592 6.944 4.672 0.096 0.096 0.128 0.256 0.224 0.352 0.064 0.096 0.192 0.128 0.288 0.224l449.184 478.208C901.44 565.408 900.768 585.664 887.904 597.792z"  horiz-adv-x="1024" />

    
    <glyph glyph-name="shanchu" unicode="&#58914;" d="M337.984 102.976c-16.064 0-28.992 12.608-28.992 28.096L308.992 440.192c0 15.552 12.992 28.096 28.992 28.096 16.064 0 28.992-12.608 28.992-28.096l0-309.056C366.976 115.58399999999995 353.984 102.976 337.984 102.976L337.984 102.976zM512 102.976c-16.064 0-28.992 12.608-28.992 28.096L483.008 440.192c0 15.552 12.992 28.096 28.992 28.096 16.064 0 28.992-12.608 28.992-28.096l0-309.056C540.992 115.58399999999995 528.064 102.976 512 102.976L512 102.976zM686.016 102.976c-16.064 0-28.992 12.608-28.992 28.096L657.024 440.192c0 15.552 12.992 28.096 28.992 28.096 16.064 0 28.992-12.608 28.992-28.096l0-309.056C715.072 115.58399999999995 702.08 102.976 686.016 102.976L686.016 102.976zM918.08 608.832l0-28.096-58.048 0 0-533.952c0-61.952-52.032-112.384-116.032-112.384L279.936-65.60000000000002c-64 0-116.032 50.432-116.032 112.384L163.904 580.736 105.92 580.736 105.92 608.832 76.864 608.832 76.864 636.928c0 61.952 52.032 112.384 116.032 112.384l120.128 0C326.016 797.696 371.072 833.6 424.96 833.6L599.04 833.6c53.888 0 98.944-35.904 111.936-84.288l120.128 0c64 0 116.032-50.432 116.032-112.384l0-28.096L918.08 608.832 918.08 608.832zM279.936-9.408000000000015l464.128 0c32 0 57.984 25.216 57.984 56.192L802.048 580.736 221.952 580.736l-4.032-533.952C217.92 15.807999999999993 248-9.408000000000015 279.936-9.408000000000015L279.936-9.408000000000015zM599.04 777.408L424.96 777.408c-21.376 0-39.872-11.392-49.92-28.096l273.92 0C638.912 766.016 620.416 777.408 599.04 777.408L599.04 777.408zM831.104 693.12L192.896 693.12c-32 0-57.984-25.216-57.984-56.192l69.12 0 145.024 0 325.888 0 145.024 0 69.12 0C889.088 667.904 863.04 693.12 831.104 693.12L831.104 693.12z"  horiz-adv-x="1024" />

    
    <glyph glyph-name="jiantouxia" unicode="&#58937;" d="M959.429379 552.7851479999999L890.590548 621.621932 511.268336 242.300744 131.944078 621.621932 63.105247 552.7851479999999 501.1857 114.70571800000005 521.348925 114.70571800000005Z"  horiz-adv-x="1024" />

    
    <glyph glyph-name="youjiantou" unicode="&#58987;" d="M780.662 375.428l0.177 0.164-489.99 489.978-30.487-30.487 460.814-460.8-460.732-459.995 29.314-29.327 491.083 490.291z"  horiz-adv-x="1024" />

    
    <glyph glyph-name="dingdan" unicode="&#58890;" d="M511.609097-65.619254M879.688243 722.169953 773.5806 722.169953c-11.534707 0-20.8734-9.341762-20.8734-20.872377 0-11.526521 9.337669-20.868283 20.8734-20.868283l106.107643 0 0-701.789531L143.330406-21.360238 143.330406 680.429293l107.822704 0c11.534707 0 20.872377 9.341762 20.872377 20.868283 0 11.529591-9.336646 20.872377-20.872377 20.872377L143.330406 722.169953c-23.011086 0-41.74066-18.718317-41.74066-41.739637l0-701.789531c0-23.013133 18.72855-41.741683 41.74066-41.741683l736.357837 0c23.011086 0 41.739637 18.72855 41.739637 41.741683L921.42788 680.429293C921.42788 703.450612 902.69933 722.169953 879.688243 722.169953L879.688243 722.169953zM879.688243 722.169953M345.846796 679.123554l331.323011 0c11.539824 0 20.8734 9.341762 20.8734 20.8734 0 11.525498-9.333576 20.86726-20.8734 20.86726l-63.996546 0c0.308015 2.812045 0.735757 5.585205 0.735757 8.480138 0 56.45785-45.940308 102.398158-102.398158 102.398158S409.112702 785.801179 409.112702 729.343329c0-2.89391 0.428765-5.668093 0.730641-8.480138l-63.996546 0c-11.534707 0-20.872377-9.341762-20.872377-20.86726C324.974419 688.465317 334.306972 679.123554 345.846796 679.123554L345.846796 679.123554zM450.852338 729.343329c0 33.446763 27.208689 60.658522 60.658522 60.658522 33.446763 0 60.653405-27.211758 60.653405-60.658522 0-2.933819-0.672312-5.668093-1.12052-8.480138L451.973882 720.863191C451.525674 723.675236 450.852338 726.40951 450.852338 729.343329L450.852338 729.343329zM450.852338 729.343329M301.69932 474.979084l419.618986 0c11.539824 0 20.8734 9.346879 20.8734 20.8734 0 11.525498-9.332553 20.86726-20.8734 20.86726L301.69932 516.719744c-11.534707 0-20.872377-9.341762-20.872377-20.86726C280.826943 484.325963 290.163589 474.979084 301.69932 474.979084L301.69932 474.979084zM301.69932 474.979084M301.69932 295.621137l419.618986 0c11.539824 0 20.8734 9.331529 20.8734 20.86726 0 11.534707-9.332553 20.8734-20.8734 20.8734L301.69932 337.361797c-11.534707 0-20.872377-9.337669-20.872377-20.8734C280.826943 304.952666 290.163589 295.621137 301.69932 295.621137L301.69932 295.621137zM301.69932 295.621137M301.69932 116.25705l419.618986 0c11.539824 0 20.8734 9.336646 20.8734 20.8734 0 11.534707-9.332553 20.86726-20.8734 20.86726L301.69932 157.99771c-11.534707 0-20.872377-9.331529-20.872377-20.86726C280.826943 125.594719 290.163589 116.25705 301.69932 116.25705L301.69932 116.25705zM301.69932 116.25705"  horiz-adv-x="1024" />

    
    <glyph glyph-name="geren" unicode="&#59142;" d="M959.36-24.96c-15.36 181.76-139.52 332.16-307.84 386.56 70.4 45.44 117.12 124.16 117.12 214.4 0 141.44-115.2 256-256.64 256C369.92 832 255.36 717.44 255.36 576c0-90.24 46.72-168.96 117.12-214.4-168.32-54.4-292.48-204.8-307.84-386.56 0-3.2-0.64-5.76 0-10.24C65.92-51.2 80-64 96-64 113.92-64 128-49.28 128-32 144.64 165.76 310.4 320 512 320s366.72-154.24 384-352c0-17.28 14.08-32 32-32 16 0 30.08 12.8 31.36 28.8C960-30.72 959.36-28.16 959.36-24.96zM319.36 576c0 106.24 86.4 192 192.64 192 106.24 0 192.64-85.76 192.64-192 0-106.24-86.4-192-192.64-192C405.76 384 319.36 469.76 319.36 576z"  horiz-adv-x="1024" />

    
    <glyph glyph-name="jiahao" unicode="&#59418;" d="M864 448L512 448 512 800C512 817.92 497.92 832 480 832 462.08 832 448 817.92 448 800L448 448 96 448C78.08 448 64 433.92 64 416 64 398.08 78.08 384 96 384L448 384l0-352C448 14.080000000000041 462.08 0 480 0 497.92 0 512 14.080000000000041 512 32L512 384l352 0C881.92 384 896 398.08 896 416 896 433.92 881.92 448 864 448z"  horiz-adv-x="1024" />

    
    <glyph glyph-name="arrow" unicode="&#58919;" d="M62 427.853l450 406.14699999 450-406.14699999zM292.625-66l0 624.015 438.75 0 0-624.015-438.75 0z"  horiz-adv-x="1024" />

    
    <glyph glyph-name="camera" unicode="&#58988;" d="M268.939 709.819c5.725 0 10.333 4.143 10.333 9.309l0 27.927c0 5.167-4.608 9.309-10.333 9.309l-72.425 0c-5.725 0-10.333-4.143-10.333-9.309l0-27.927c0-5.12 4.608-9.309 10.333-9.309L268.939 709.819zM372.363 360.72900000000004c0-89.972 72.937-162.909 162.909-162.909S698.18 270.75699999999995 698.18 360.72900000000004s-72.937 162.909-162.909 162.909S372.363 450.701 372.363 360.72900000000004zM0 570.183l0-465.453c0-93.091 93.091-93.091 93.091-93.091l837.816 0c0 0 93.091 0 93.091 93.091L1023.998 570.183c0 93.091-93.091 93.091-93.091 93.091L744.725 663.274l-46.545 93.091L372.363 756.365l-46.545-93.091L93.091 663.274C93.091 663.273 0 663.273 0 570.183zM791.271 570.183c25.693 0 46.545-20.852 46.545-46.545 0-25.693-20.852-46.545-46.545-46.545-25.693 0-46.545 20.852-46.545 46.545C744.725 549.3299999999999 765.578 570.183 791.271 570.183zM535.271 570.183c115.665 0 209.454-93.789 209.454-209.454s-93.789-209.454-209.454-209.454-209.454 93.789-209.454 209.454S419.606 570.183 535.271 570.183z"  horiz-adv-x="1024" />

    
    <glyph glyph-name="qita" unicode="&#58950;" d="M736.1792 439.296c-19.92704 11.52512-44.48256 11.52512-64.40448 0s-32.19968-32.82432-32.19968-55.87456 12.27264-44.34944 32.19968-55.86944c19.92704-11.52512 44.48256-11.52512 64.40448 0 19.93216 11.52 32.19968 32.8192 32.19968 55.86944S756.11136 427.77088 736.1792 439.296zM997.71904 538.2912c-10.9312 34.4064-25.1904 67.37408-43.18208 98.6624-12.16512 21.15584-40.35072 22.93248-54.0416 3.39968-8.56064-12.20096-7.19872-24.61184-0.19968-37.36064 59.61216-108.55424 74.09152-223.05792 40.13056-342.07744-68.73088-240.91648-318.67904-377.15456-558.4128-305.82784-175.66208 52.25472-303.3344 211.02592-316.88192 394.368-5.53984 74.97728 6.90688 146.90816 36.8896 215.91552 82.54976 189.9776 293.2224 299.58656 495.7696 257.8176 46.5664-9.6 90.61888-25.79968 131.99872-49.2544 7.08608-4.00896 14.40768-6.69184 22.68672-5.41184 13.91104 2.15552 24.73472 12.30336 27.22816 25.43104 2.7392 14.39232-3.70176 27.47392-17.72544 35.25632C647.23456 892.96384 525.46048 911.55456 397.50656 882.9184 165.39136 830.97088 0.05632 622.81728 0 384.34816c-0.00512-38.14912 4.0192-75.87328 12.42112-113.06496 65.00864-287.8208 359.52128-461.42976 642.048-378.55232 199.6288 58.56256 343.83872 232.51456 364.79488 440.70912C1026.2784 403.11296 1018.94144 471.48544 997.71904 538.2912zM478.62784 439.296c-19.92704-11.52512-32.2048-32.82432-32.2048-55.87456 0-35.63008 28.83584-64.51712 64.40448-64.51712s64.40448 28.88704 64.40448 64.51712c0 23.05024-12.27264 44.34944-32.2048 55.87456C523.10528 450.82112 498.55488 450.82112 478.62784 439.296zM285.60896 439.296c-19.92704-11.52512-32.2048-32.82432-32.2048-55.87456s12.27264-44.34944 32.2048-55.86944c19.92704-11.52512 44.47744-11.52512 64.40448 0 19.92704 11.52 32.19968 32.8192 32.19968 55.86944s-12.27264 44.34944-32.19968 55.87456C330.0864 450.82112 305.53088 450.82112 285.60896 439.296z"  horiz-adv-x="1024" />

    
    <glyph glyph-name="warning" unicode="&#58892;" d="M989.07345707 384C989.07345707 647.48039467 775.48039467 861.07345707 512 861.07345707 248.51960533 861.07345707 34.92654293 647.48039467 34.92654293 384 34.92654293 120.51960532999999 248.51960533-93.07345707000002 512-93.07345707000002 775.48039467-93.07345707000002 989.07345707 120.51960532999999 989.07345707 384L989.07345707 384 989.07345707 384 989.07345707 384 989.07345707 384 989.07345707 384ZM91.052832 384C91.052832 616.48270187 279.51729813 804.947168 512 804.947168 744.48270187 804.947168 932.947168 616.48270187 932.947168 384 932.947168 151.51729812999997 744.48270187-36.94716800000003 512-36.94716800000003 279.51729813-36.94716800000003 91.052832 151.51729812999997 91.052832 384L91.052832 384 91.052832 384 91.052832 384 91.052832 384 91.052832 384ZM482.6213952 290.60234773C482.6213952 266.04697280000005 493.8757728 253.76946986999997 516.38486613 253.76946986999997 538.89395947 253.76946986999997 550.14833707 266.04697280000005 550.14833707 290.60234773L550.14833707 631.3064608C550.14833707 655.8618357299999 538.89395947 668.13933867 516.38486613 668.13933867 493.8757728 668.13933867 482.6213952 655.8618357299999 482.6213952 631.3064608L482.6213952 290.60234773ZM476.4825824 140.20143147C478.528864 115.64605759999995 491.82949227 103.36855360000004 516.38486613 103.36855360000004 540.94024107 103.36855360000004 554.24086933 115.64605759999995 556.28714987 140.20143147 554.24086933 164.75680639999996 540.94024107 178.05743467000002 516.38486613 180.1037152 491.82949227 178.05743467000002 478.528864 164.75680639999996 476.4825824 140.20143147L476.4825824 140.20143147Z"  horiz-adv-x="1024" />

    
    <glyph glyph-name="tianjia" unicode="&#58936;" d="M534.54545428 406.54545428L534.54545428 654.5454542800001 489.45454572 654.5454542800001 489.45454572 406.54545428 241.45454572 406.54545428 241.45454572 361.45454572000006 489.45454572 361.45454572000006 489.45454572 113.45454572000006 534.54545428 113.45454572000006 534.54545428 361.45454572000006 782.54545428 361.45454572000006 782.54545428 406.54545428 534.54545428 406.54545428ZM512-112C238.06677562-112 16 110.06677562000004 16 384 16 657.93322438 238.06677562 880 512 880 785.93322438 880 1008 657.93322438 1008 384 1008 110.06677562000004 785.93322438-112 512-112ZM512-66.90909047000002C761.03021428-66.90909047000002 962.90909047 134.96978572 962.90909047 384 962.90909047 633.03021428 761.03021428 834.90909047 512 834.90909047 262.96978572 834.90909047 61.09090953 633.03021428 61.09090953 384 61.09090953 134.96978572 262.96978572-66.90909047000002 512-66.90909047000002Z"  horiz-adv-x="1024" />

    
    <glyph glyph-name="qita1" unicode="&#58948;" d="M947.2-128h-593.92c-42.496 0-76.8 34.304-76.8 76.8V686.592c0 42.496 34.304 76.8 76.8 76.8h593.92c42.496 0 76.8-34.304 76.8-76.8v-737.792c0-41.984-34.304-76.8-76.8-76.8z m-593.92 840.192c-14.336 0-25.6-11.264-25.6-25.6v-737.792c0-14.336 11.264-25.6 25.6-25.6h593.92c14.336 0 25.6 11.264 25.6 25.6V686.592c0 14.336-11.264 25.6-25.6 25.6h-593.92zM204.8 4.608h-128c-42.496 0-76.8 34.304-76.8 76.8V819.2c0 42.496 34.304 76.8 76.8 76.8h593.92c42.496 0 76.8-34.304 76.8-76.8 0-14.336-11.264-25.6-25.6-25.6s-25.6 11.264-25.6 25.6-11.264 25.6-25.6 25.6h-593.92c-14.336 0-25.6-11.264-25.6-25.6V81.408c0-14.336 11.264-25.6 25.6-25.6h128c14.336 0 25.6-11.264 25.6-25.6s-11.264-25.6-25.6-25.6zM865.28 522.752h-430.08c-14.336 0-25.6 11.264-25.6 25.6s11.264 25.6 25.6 25.6h430.08c14.336 0 25.6-11.264 25.6-25.6s-11.264-25.6-25.6-25.6zM762.88 339.968h-327.68c-14.336 0-25.6 11.264-25.6 25.6s11.264 25.6 25.6 25.6h327.68c14.336 0 25.6-11.264 25.6-25.6s-11.264-25.6-25.6-25.6zM627.2 156.672H435.2c-14.336 0-25.6 11.264-25.6 25.6s11.264 25.6 25.6 25.6h192c14.336 0 25.6-11.264 25.6-25.6s-11.264-25.6-25.6-25.6z"  horiz-adv-x="1024" />

    
    <glyph glyph-name="error" unicode="&#58932;" d="M512-48a432 432 0 1 1 0 864 432 432 0 0 1 0-864z m0-48C246.896-96 32 118.89599999999996 32 384S246.896 864 512 864s480-214.896 480-480-214.896-480-480-480zM302.576 559.488l387.216-407.76a24 24 0 0 1 34.8 33.024L337.424 592.512a24 24 0 1 1-34.848-33.024z m387.216 33.024L302.576 184.79999999999995a24 24 0 0 1 34.848-33.024l387.168 407.76a24 24 0 1 1-34.8 33.024z"  horiz-adv-x="1024" />

    
    <glyph glyph-name="jiesuo" unicode="&#58934;" d="M832.8 448.2H255.3v64.2C255.3 653.9 370.5 769 512 769c119.2 0 218.8-82.1 247.5-192.5h66.8C796.4 722.5 666.5 833.2 512 833.2c-176.5 0-320.8-144.4-320.8-320.8v-64.2c-35.3 0-64.2-28.9-64.2-64.2v-385c0-35.3 28.9-64.2 64.2-64.2h641.7c35.3 0 64.2 28.9 64.2 64.2V384c-0.1 35.3-29 64.2-64.3 64.2z m0-449.2H191.2V384h641.7v-385z"  horiz-adv-x="1024" />

    
    <glyph glyph-name="bianji" unicode="&#58970;" d="M218.23 324.69L148 102.99l221.5 70.3-151.27 151.4zM855.74 665.35a68.58 68.58 0 0 1 0 97.33l-48.62 48.66a68.43 68.43 0 0 1-97.25 0l-48.62-48.66 145.87-146zM272.107 373.477l340.686 340.33 145.856-146.01-340.686-340.329zM920 16H104a40 40 0 0 1 0-80h816a40 40 0 0 1 0 80z"  horiz-adv-x="1024" />

    
    <glyph glyph-name="shouye" unicode="&#58916;" d="M976.213333 445.44l-443.733333 375.466667c-13.653333 10.24-30.72 10.24-44.373333 0l-443.733334-375.466667c-13.653333-13.653333-17.066667-34.133333-3.413333-47.786667 13.653333-13.653333 34.133333-17.066667 47.786667-3.413333l13.653333 6.826667V-25.600000000000023c0-20.48 13.653333-34.133333 34.133333-34.133333h750.933334c20.48 0 34.133333 13.653333 34.133333 34.133333V401.066667l13.653333-10.24c6.826667-6.826667 13.653333-6.826667 20.48-6.826667 10.24 0 20.48 3.413333 27.306667 13.653333 10.24 13.653333 10.24 34.133333-6.826667 47.786667zM580.266667 8.53333299999997h-136.533334v136.533334h136.533334v-136.533334z m273.066666 443.733334v-443.733334h-204.8v170.666667c0 20.48-13.653333 34.133333-34.133333 34.133333h-204.8c-20.48 0-34.133333-13.653333-34.133333-34.133333v-170.666667H170.666667V452.266667v6.826666l341.333333 290.133334 341.333333-290.133334v-6.826666z"  horiz-adv-x="1024" />

    
    <glyph glyph-name="sousuo1" unicode="&#59266;" d="M949.76 11.6736a88.68864 88.68864 0 0 0-25.64096-62.67904 87.14752 87.14752 0 0 0-123.76576-0.16896l-164.29568 160.87552a382.4128 382.4128 0 0 0-26.43968-12.6208 382.83776 382.83776 0 0 0-300.032 0 383.38048 383.38048 0 0 0-122.48064 83.39968 391.296 391.296 0 0 0 0 550.36928 384.56832 384.56832 0 0 0 627.55328-123.648 391.00416 391.00416 0 0 0-40.704-376.57088l150.32832-156.56448a88.576 88.576 0 0 0 25.47712-62.39232z m-153.6512 444.04736c0 186.33216-150.41536 337.92-335.30368 337.92s-335.32928-151.6032-335.32928-337.92S275.89632 117.76 460.8 117.76s335.3088 151.64928 335.3088 337.96096z m-503.61344-168.90368a240.45568 240.45568 0 0 0 0 337.73568l34.63168-40.07424a183.46496 183.46496 0 0 1 0-257.50528z"  horiz-adv-x="1024" />

    
    <glyph glyph-name="success" unicode="&#58929;" d="M511.86067813-96c-64.78010719 0-127.59434438 12.73135031-186.85129219 37.72598719-57.19746469 24.15212062-108.49731844 58.78888313-152.58898125 102.88054594-44.09166281 44.09166281-78.63481219 95.39151656-102.88054594 152.58898125C44.638835 256.35884906 32.00109688 319.17308625 32.00109688 383.95319343999995s12.73135031 127.59434438 37.72598718 186.85129219c24.15212062 57.19746469 58.78888313 108.49731844 102.88054594 152.58898125s95.39151656 78.63481219 152.58898125 102.88054593C384.26633375 851.17503656 447.08057 863.90638688 511.86067813 863.90638688c64.78010719 0 127.59434438-12.73135031 186.85129124-37.72598719 57.19746469-24.15212062 108.49731844-58.78888313 152.58898126-102.88054594 44.09166281-44.09166281 78.63481219-95.39151656 102.88054593-152.58898125 24.99463687-59.16333469 37.72598719-122.071185 37.72598719-186.85129219s-12.73135031-127.59434438-37.72598719-186.85129125c-24.15212062-57.19746469-58.78888313-108.49731844-102.88054593-152.58898125-44.09166281-44.09166281-95.39151656-78.63481219-152.58898125-102.88054594-59.16333469-24.80741063-122.071185-37.53876187-186.85129126-37.53876187z m0 922.46123813c-243.95514375 0-442.50804469-198.45928781-442.50804563-442.50804469 0-243.95514375 198.45928781-442.50804469 442.50804563-442.50804469 243.95514375 0 442.50804469 198.45928781 442.50804468 442.50804469 0 243.95514375-198.45928781 442.50804469-442.50804469 442.50804469z m-66.37152657-634.22720625c-4.86786937 0-9.82935187 0.93612844-14.32276968 2.9956125-7.95709406 0.74890313-15.44612344 4.02535312-20.7820575 9.26767406L252.55302312 353.90346187l-0.18722624 0.18722532c-12.91857656 12.91857656-12.91857656 35.66650406 0 48.58508062 12.91857656 12.91857656 35.38566563 12.91857656 48.39785531 0.18722625l139.57679156-132.18137531 282.24280875 297.78254531 0.18722531 0.18722532c6.08483625 6.08483625 14.97805969 9.64212563 24.33934688 9.64212562s18.1608975-3.55728937 24.33934687-9.64212562c12.91857656-12.91857656 12.91857656-35.38566563 0.18722531-48.39785438l-301.62067312-318.28376437-0.18722531-0.18722532c-6.45928781-6.2720625-15.35251125-9.5485125-24.33934688-9.54851343z"  horiz-adv-x="1025" />

    
    <glyph glyph-name="wode" unicode="&#58909;" d="M929.78461494 123.29476915999999c-69.91692337 61.84738506-212.13538506 127.26215422-237.98461494 138.89907662-0.26707663-0.26707663-0.55323084-0.496-0.80123084-0.76307662 0.248-6.448 0.59138506-12.87692338 0.59138506-19.4393841 0-133.48123084-50.47753831-246.76-120.75692338-288.88184675L544.65969253 88.30769253000005l27.20369253 31.53415325-59.9206159 54.54092338-59.90153832-54.54092338 27.22276916-31.53415325-26.47876916-136.76246169c-71.61476916 40.88184578-123.256 155.34338506-123.256 290.42707663 0 6.48615422 0.32430747 12.85784578 0.5913841 19.28676916-30.94276916-14.00246169-167.87692337-77.70030747-235.96246072-137.9833841C17.10646169 55.07569252999997 15.96184578-111.98092337000003 15.96184578-111.98092337000003h992c-0.01907662 0.01907662-1.14461494 167.07569253-78.17723084 235.27569253z m-419.19630747 118.6966159c137.96430747 0 249.81230747 205.21046169 249.81230747 343.34646072v54.63630844c0 132.60369253-111.848 240.04492337-249.81230747 240.04492241S260.73784578 772.57784578 260.73784578 639.97415422v-54.63630844c0-138.11692337 111.86707662-343.34646169 249.85046169-343.34646072z"  horiz-adv-x="1024" />

    
    <glyph glyph-name="sousuo" unicode="&#58923;" d="M412.64134394 166.04558168999995a317.31307437 317.31307437 0 1 1 0 634.62614972 317.31307437 317.31307437 0 0 1 0-634.62614972z m251.03430615 10.19368253A394.97544947 394.97544947 0 0 0 412.64134394 86.71731308999995C193.57632931 86.71731308999995 16 264.29364240999996 16 483.35865606S193.57632931 880 412.64134394 880s396.64134394-177.57632931 396.64134297-396.64134394a394.97544947 394.97544947 0 0 0-89.52195113-251.03430615l288.23926422-288.23926422-56.08508569-56.08508569-288.23926422 288.23926422z"  horiz-adv-x="1024" />

    
    <glyph glyph-name="dianhua" unicode="&#58941;" d="M247.000615 836.804923c38.813538-17.053538 144.659692-185.225846 152.989539-225.260308-0.433231-13.725538-6.537846-24.654769-17.053539-42.318769-12.307692-20.676923-27.628308-46.434462-27.628307-82.077538 0-35.308308 39.581538-93.321846 117.641846-172.425846 77.804308-78.867692 134.301538-118.843077 167.876923-118.843077 31.409231 0 57.619692 13.981538 80.738461 26.308923 19.377231 10.338462 36.155077 19.278769 52.854154 19.515077 37.612308-5.474462 202.948923-122.624 229.671385-161.792-4.411077-77.508923-86.567385-148.775385-150.626462-148.775385-127.940923 0-313.186462 107.756308-483.446153 281.225846-165.001846 168.073846-271.596308 352.315077-271.596308 469.366154 0 29.499077 22.921846 68.036923 61.282461 103.089231 38.045538 34.737231 73.846154 50.313846 87.296 51.987692m2.205539 39.542154c-55.906462 0-190.168615-101.651692-190.168616-194.619077 0-271.911385 489.491692-789.976615 794.427077-789.976615 83.948308 0 190.208 90.249846 190.208 194.678153 0 35.780923-218.190769 194.678154-268.524307 194.678154-51.692308 0-89.560615-45.824-134.301539-45.824-44.740923 0-246.134154 201.708308-246.134154 251.904 0 50.018462 44.721231 74.338462 44.721231 125.971693-0.039385 37.021538-134.321231 263.187692-190.227692 263.187692zM243.751385 756.263385a86.646154 86.646154 0 0 1-25.265231-11.401847 81.112615 81.112615 0 0 1-14.651077-11.894153l-7.089231-7.640616c-2.087385-2.875077-4.017231-5.947077-6.065231-9.058461-3.899077-6.262154-7.089231-13.371077-9.491692-20.676923-1.772308-7.483077-4.194462-15.084308-4.391385-22.843077l-0.649846-11.59877 0.925539-11.323076c0.236308-7.581538 1.851077-14.749538 3.800615-21.543385 1.772308-6.813538 3.249231-13.508923 6.025846-19.298462 2.402462-5.947077 4.883692-11.441231 7.207385-16.482461 2.008615-5.159385 5.179077-9.314462 7.443692-13.193846l6.340923-9.787077c3.584-5.356308 5.789538-8.290462 5.789539-8.290462l-2.166154 9.885539-2.855385 11.047384c-1.004308 4.273231-2.796308 8.861538-3.682461 14.139077a349.892923 349.892923 0 0 1-3.643077 16.699077c-1.732923 5.809231-1.890462 12.150154-3.072 18.491077l-1.476923 9.688615a152.300308 152.300308 0 0 1-0.354462 9.905231l-0.531692 10.003693 0.905846 9.90523c-0.118154 6.734769 1.831385 12.996923 3.032615 19.357539 1.949538 6.065231 3.564308 12.307692 6.419693 17.742769 1.417846 2.737231 2.894769 5.376 4.135384 8.113231l4.903385 7.325538c3.328 4.667077 6.971077 8.920615 10.535385 12.642462C240.423385 751.044923 253.971692 758.1538459999999 253.971692 758.1538459999999s-3.780923-0.177231-10.220307-1.890461z"  horiz-adv-x="1102" />

    
    <glyph glyph-name="daixie" unicode="&#58947;" d="M722.904615 797.577846c25.934769 0 50.254769-10.023385 68.371693-28.140308l144.521846-145.309538a94.976 94.976 0 0 0 28.534154-68.430769 93.715692 93.715692 0 0 0-28.770462-67.505231L435.121231-13.863384999999994c-9.058462-9.058462-21.523692-14.257231-34.422154-14.25723l-232.566154-1.398154c-24.359385 0-30.306462 5.966769-30.306461 30.365538V231.660308c0 12.918154 5.257846 25.521231 14.276923 34.934154L653.784615 769.201231a97.831385 97.831385 0 0 0 69.12 28.376615m0 39.384616a137.353846 137.353846 0 0 1-96.787692-39.75877L124.238769 294.41969200000005c-16.718769-17.427692-25.796923-39.739077-25.796923-62.739692v-230.813538c0-46.040615 23.709538-69.750154 69.691077-69.750154l232.802462 1.398154a88.123077 88.123077 0 0 1 62.050461 25.796923L963.465846 460.406154c53.681231 52.302769 53.681231 138.771692 0 191.763692l-144.285538 145.053539a135.68 135.68 0 0 1-96.275693 39.739077zM125.085538 292.509538l-13.922461-13.902769 315.076923-315.096615 13.922462 13.942154-315.076924 315.05723zM558.316308 725.740308l-13.90277-13.922462 315.037539-315.076923 13.961846 13.922462-315.096615 315.076923z"  horiz-adv-x="1102" />

    
    <glyph glyph-name="gongwenbao" unicode="&#58955;" d="M881.749333 526.250667l-0.028444-455.111111H142.222222l-0.028444 455.111111h739.555555m0 56.888889h-739.555555a56.888889 56.888889 0 0 1-56.860445-56.888889v-455.111111a56.888889 56.888889 0 0 1 56.860445-56.888889h739.555555a56.888889 56.888889 0 0 1 56.917334 56.888889v455.111111a56.888889 56.888889 0 0 1-56.917334 56.888889zM910.193778 384.056889H113.777778v-28.472889h796.416v28.472889zM654.193778 668.5013329999999l0.028444-85.333333h-284.444444v85.333333h284.416m0 56.888889h-284.444445a56.888889 56.888889 0 0 1-56.860444-56.888889v-142.222222h398.222222v142.222222a56.888889 56.888889 0 0 1-56.917333 56.888889zM568.888889 355.612444v-56.888888h-113.806222v56.888888h113.806222m28.444444 28.444445h-170.695111v-113.777778h170.695111v113.777778z"  horiz-adv-x="1024" />

    
    <glyph glyph-name="shu" unicode="&#58957;" d="M872.988444 668.472889c4.465778 0 7.395556-1.479111 8.732445-2.474667v-521.301333a14.762667 14.762667 0 0 0-8.732445-2.474667H610.844444l-15.900444-13.454222c-21.930667-18.545778-52.167111-29.184-82.972444-29.184-30.862222 0-61.098667 10.638222-82.944 29.155556l-15.928889 13.482666H150.954667a14.791111 14.791111 0 0 0-8.760889 2.474667V665.9982219999999a14.933333 14.933333 0 0 0 8.760889 2.474667h229.717333c35.015111 0 68.039111-13.966222 88.348444-37.376l43.008-49.550222 42.951112 49.578666c20.252444 23.381333 53.248 37.347556 88.263111 37.347556h229.745777m0 56.888889h-229.745777c-53.617778 0-101.290667-22.414222-131.242667-56.974222-30.008889 34.56-77.681778 56.974222-131.328 56.974222H150.954667c-36.181333 0-65.649778-25.514667-65.649778-56.888889v-526.222222c0-31.345778 29.411556-56.888889 65.649778-56.888889h241.294222c32.170667-27.278222 75.036444-42.666667 119.751111-42.666667 44.657778 0 87.495111 15.388444 119.722667 42.666667h241.294222c36.181333 0 65.621333 25.514667 65.621333 56.888889v526.222222c-0.028444 31.374222-29.411556 56.888889-65.649778 56.888889zM511.971556 611.5840000000001h-28.444445v-369.749333h28.444445V611.5840000000001zM739.498667 554.695111h-142.193778v-28.444444h142.193778v28.444444zM739.498667 298.695111h-142.193778v-28.416h142.193778v28.416zM398.165333 554.695111H255.971556v-28.444444h142.193777v28.444444zM398.165333 440.917333H255.971556v-28.444444h142.193777v28.444444zM398.165333 298.695111H255.971556v-28.416h142.193777v28.416z"  horiz-adv-x="1024" />

    
    <glyph glyph-name="home" unicode="&#58967;" d="M510.208112 850.328188L972.984522 356.12974199999996h-136.866113v-441.44441H188.201571V356.12974199999996H50.951482L510.208112 850.328188m2.922484 45.65048h-5.8663c-7.78618-0.490636-15.316376-3.071808-21.076016-8.831448L10.122034 374.859238c-13.268504-13.268504-12.47922-35.539112 1.81322-49.81022 0.234652-0.234652 0.469304-0.298648 0.703956-0.469304 6.356936-6.82624 15.14572-11.135304 24.95844-11.135304h107.939921v-402.150866c0-10.708664 4.863696-20.094744 12.223236-26.77166 6.378268-7.551528 15.4657-12.521884 25.854384-12.521884h657.068266c10.410016 0 19.454784 4.970356 25.854384 12.521884 7.402204 6.676916 12.244568 16.062996 12.244568 26.77166V313.465742h107.939921a33.832552 33.832552 0 0 1 25.342416 11.647272c14.271108 14.18578 15.081724 36.47772 1.855884 49.767556L534.18528 887.14722c-5.75964 5.716976-13.289836 8.31948-21.054684 8.831448zM618.66 191.98000100000002c11.753932 0 21.332-9.578068 21.332-21.332v-277.316001H384.008V170.64800100000002c0 11.753932 9.578068 21.332 21.332 21.332h213.32m0 21.332H405.34a42.664 42.664 0 0 1-42.664001-42.664v-298.648001h298.648002V170.64800100000002a42.664 42.664 0 0 1-42.664001 42.664z"  horiz-adv-x="1024" />

    
    <glyph glyph-name="gou" unicode="&#58964;" d="M1254.73721286 766.91611114L1206.9453311 816.40274079a11.91165417 11.91165417 0 0 1-16.22115605 0.62947758L484.1112754 200.04725473999997a27.60017462 27.60017462 0 0 0-34.28232254-0.67789898L163.94924608 429.03186439a10.41059194 10.41059194 0 0 1-15.20430714-2.37264689L98.4835683 354.94718457a14.62325098 14.62325098 0 0 1 1.1136909-17.62537544l352.4590763-382.33505498a20.91802756 20.91802756 0 0 1 30.69914192-0.4357919L1254.64037002 750.7433773600001a11.71796935 11.71796935 0 0 1 0.09684284 16.17273377z"  horiz-adv-x="1364" />

    
    <glyph glyph-name="cha" unicode="&#58966;" d="M947.89783309 711.36962582L839.36962582 819.9375 512 492.56787419 184.67004109 819.9375 76.0625 711.36962582l327.36962582-327.36962582L76.0625 56.67004109000004l108.60754109-108.60754109 327.32995891 327.36962582 327.36962582-327.36962582 108.52820728 108.60754109-327.32995892 327.32995891z"  horiz-adv-x="1024" />

    
    <glyph glyph-name="wenhao" unicode="&#58968;" d="M444.18971456-112h135.656v124H444.18971456V-112zM512 880C333.936 880 193.14285728 751.3588572799999 193.14285728 588.6h135.69142816C328.83428544 684.68228544 406.88342816 756 512 756c101.78628544 0 183.20114272-74.4 183.20114272-167.43542816 0-77.51771456-57.64228544-122.44114272-176.36342816-209.24114368l-11.904-9.3177136c-39.00685728-29.47657184-62.744-74.4-62.744-122.44114272v-113.15885728h135.656V247.60000000000002c0 9.31771456 5.10171456 20.12342816 11.904 24.8l11.86857088 9.28228544C725.70514272 370.04114272000004 830.85714272 447.52342816 830.85714272 588.6 830.85714272 749.8 688.43428544 880 512 880z"  horiz-adv-x="1024" />

    
    <glyph glyph-name="tanhao" unicode="&#58969;" d="M582.80147156 171.45387656000003L618.26420444 880H405.70036741l35.42730665-708.54612344h141.6737975zM405.73579556 29.709224690000042v-141.70922469h212.56383703v141.70922469h-212.56383703z"  horiz-adv-x="1024" />

    
    <glyph glyph-name="zuojiantou" unicode="&#59143;" d="M243.338 392.572l-0.177-0.164 489.99-489.978 30.487 30.487-460.814 460.8 460.732 459.995-29.314 29.327-491.083-490.291z"  horiz-adv-x="1024" />

    
    <glyph glyph-name="jiantouyou" unicode="&#58986;" d="M296.754574 895.573511L213.333333 812.450812 643.575399 383.78675599999997 213.333333-44.87730099999999l83.421241-83.122699L810.417881 383.78675599999997z"  horiz-adv-x="1024" />

    
    <glyph glyph-name="qingchu" unicode="&#58994;" d="M512.06612881 880c-273.90600638 0-495.96693559-222.06092922-495.96693559-495.96693559 0-273.90600638 222.06092922-495.96693559 495.96693559-495.9669356 273.90600638 0 495.93387119 222.06092922 495.93387119 495.9669356 0.03306441 273.93907078-222.02786481 495.96693559-495.93387119 495.96693559z m220.14319075-666.28198088a36.20558588 36.20558588 0 0 0 0-51.08459484 35.94107062 35.94107062 0 0 0-50.98540162 0l-169.81907822 170.34811066-169.81907919-170.34811066a35.94107062 35.94107062 0 0 0-50.95233625 0 36.20558588 36.20558588 0 0 0 0 51.08459484l169.81907919 170.34810969-169.81907919 170.38117506a36.20558588 36.20558588 0 0 0 0 51.08459388 35.94107062 35.94107062 0 0 0 50.95233625 0l169.81907919-170.31504528L681.25698331 605.4988333399999a35.94107062 35.94107062 0 0 0 50.95233625 0 36.20558588 36.20558588 0 0 0 0-51.08459387l-169.85214359-170.34811066 169.85214359-170.34810968z"  horiz-adv-x="1024" />

    


  </font>
</defs>
</svg>
